<?xml version="1.0" standalone="no"?>
<!DOCTYPE svg PUBLIC "-//W3C//DTD SVG 20010904//EN"
 "http://www.w3.org/TR/2001/REC-SVG-20010904/DTD/svg10.dtd">
<svg version="1.0" xmlns="http://www.w3.org/2000/svg"
 width="640.000000pt" height="1280.000000pt" viewBox="0 0 640.000000 1280.000000"
 preserveAspectRatio="xMidYMid meet">
<metadata>
Created by potrace 1.15, written by Peter Selinger 2001-2017
</metadata>
<g transform="translate(0.000000,1280.000000) scale(0.100000,-0.100000)"
fill="#000000" stroke="none">
<path d="M4960 12773 c0 -16 11 -273 25 -573 14 -300 25 -572 25 -605 l0 -60
-187 -155 -188 -155 -110 -3 -110 -4 -230 109 -230 109 -1 115 c-1 63 -20 352
-43 642 -23 291 -40 536 -39 545 3 15 -5 17 -57 14 -97 -6 -138 -19 -232 -72
-125 -72 -213 -143 -334 -267 -121 -124 -192 -217 -276 -358 -160 -270 -260
-580 -281 -867 l-7 -103 -170 -7 c-164 -7 -173 -9 -237 -40 -38 -17 -68 -36
-68 -41 0 -6 34 -76 75 -156 61 -117 73 -148 62 -156 -7 -5 -66 -53 -130 -105
l-117 -94 0 -76 0 -75 78 -82 77 -83 81 24 c180 54 273 42 301 -39 18 -51 79
-343 135 -640 l42 -230 1 -405 0 -405 -39 -115 c-119 -352 -538 -1529 -1116
-3130 -122 -338 -269 -747 -326 -907 -57 -161 -152 -427 -210 -590 -180 -506
-438 -1247 -519 -1493 -43 -129 -117 -341 -165 -470 -196 -528 -241 -701 -243
-915 0 -110 15 -183 63 -298 102 -245 271 -419 482 -495 124 -44 212 -57 403
-56 157 0 176 2 242 26 86 31 180 92 291 190 124 110 169 180 255 398 60 154
133 394 205 686 33 131 254 885 491 1675 236 790 482 1611 546 1825 64 214
195 650 290 969 95 319 239 803 320 1075 241 815 254 857 309 999 136 347 332
724 470 907 120 159 345 380 566 556 240 190 601 545 735 723 59 78 179 322
248 505 68 179 82 276 82 570 0 344 -29 474 -164 736 -101 196 -140 254 -286
429 -212 254 -363 384 -562 484 -73 36 -91 41 -153 41 -70 0 -70 0 -70 -27z
m-927 -3330 c36 -68 40 -73 71 -73 23 0 38 7 49 23 15 21 16 19 16 -45 l1 -68
-445 0 -445 0 0 56 0 55 33 -3 c24 -2 33 -8 35 -25 3 -17 10 -23 30 -23 25 0
30 6 51 70 23 67 26 70 55 70 27 0 35 -8 61 -53 30 -50 32 -52 74 -52 l44 0
16 65 c16 61 19 65 47 68 29 3 32 -1 63 -67 31 -67 34 -71 66 -71 31 0 35 3
53 53 11 28 23 62 27 75 5 18 13 22 33 20 22 -2 34 -16 65 -75z m-2838 -8028
c108 -16 243 -97 313 -187 84 -109 118 -224 109 -363 -17 -238 -154 -395 -400
-457 -98 -25 -249 -21 -337 8 -129 44 -238 154 -277 282 -27 88 -24 256 7 351
66 205 229 345 430 371 54 7 77 6 155 -5z"/>
</g>
</svg>
